<svg id="Layer_1" data-name="Layer 1" xmlns="http://www.w3.org/2000/svg" viewBox="0 0 448.3 448.3"><defs><style>.cls-1{fill:#fff;}.cls-2{fill:#4ea3da;}.cls-3{fill:#122436;}.cls-4{fill:#ffcc34;}</style></defs><title>Artboard 179</title><circle class="cls-1" cx="224.15" cy="224.15" r="224.15"/><path class="cls-2" d="M224.3,206.71C284.57,178.66,324,132.1,324,79.41h0c-24.47-43-60.16-70-99.91-70s-75.45,27.08-99.92,70h0C124.17,132.06,164.12,178.65,224.3,206.71Z"/><path class="cls-1" d="M125.64,96.85c24.41-41.49,59.48-67.5,98.44-67.5s74,26,98.45,67.51A105.46,105.46,0,0,0,324,79.41h0c-24.47-43-60.16-70-99.91-70s-75.45,27.08-99.92,70h0A104.19,104.19,0,0,0,125.64,96.85Z"/><path class="cls-2" d="M224.3,206.71c-60.18-28.06-100.13-74.65-100.13-127.3h0c-20.92,36.75-33.63,85.13-33.63,138.13q0,8.63.45,17.07h0C140.56,234.61,186.53,224.3,224.3,206.71Z"/><path class="cls-1" d="M196.55,217.8a272.84,272.84,0,0,0,27.75-11.09c-60.18-28.06-100.13-74.65-100.13-127.3h0a229.69,229.69,0,0,0-14.22,30C115.25,153.15,148.12,191.8,196.55,217.8Z"/><path class="cls-2" d="M324,79.4h0c0,52.69-39.41,99.25-99.68,127.3h0c-37.77,17.59-83.74,27.9-133.32,27.9h0c2.65,50.92,17,96.66,39,130.62h0c125.9,0,223.5-64.4,227.67-147.46v-.23C357.63,164.53,344.92,116.15,324,79.4Z"/><path class="cls-1" d="M233.71,230.59c57.82-26.91,97.71-69.73,105.37-118.93A231.38,231.38,0,0,0,324,79.4h0c0,52.69-39.41,99.25-99.68,127.3-37.77,17.59-83.74,27.9-133.32,27.9h0q.67,13.17,2.39,25.84C145.54,260.13,193.88,249.13,233.71,230.59Z"/><path class="cls-2" d="M130,365.23h0c24.14,37.39,57.4,60.49,94.12,60.49,73.71,0,133.47-93.08,133.55-207.95C353.46,300.83,255.86,365.23,130,365.23Z"/><path class="cls-1" d="M348.41,293.68a312.29,312.29,0,0,0,9.22-75.91C353.46,300.83,255.86,365.23,130,365.23h0a174,174,0,0,0,16.27,21.48C237.9,382.82,313.32,346.17,348.41,293.68Z"/><path class="cls-3" d="M364,212.24h-.22C361.94,96.45,300,3.12,224.08,3.12,147,3.12,84.29,99.31,84.29,217.54S147,432,224.08,432s139.75-96.13,139.79-214.31C364,215.85,364,214.05,364,212.24ZM97.65,240.79c118-2.19,214.86-62.28,230.39-139.57,14.66,32.86,23.31,72.91,23.34,116.14-3.91,79.09-98,140.47-218.06,141.6C114,327.71,101,286.56,97.65,240.79ZM224.08,15.61c37,0,70.35,25.19,93.63,65.29C317,129.71,280.34,173,224.34,199.8c-58.24-28-93.16-72.16-93.89-118.89C153.73,40.8,187.08,15.61,224.08,15.61ZM120.14,101.17c8.37,41.28,40.29,79.07,89.4,105.16-32.93,13.32-71.4,21.28-112.58,22q-.18-5.34-.18-10.77C96.78,174.23,105.45,134.09,120.14,101.17Zm103.94,318.3c-31.41,0-60.17-18.17-82.4-48.18,58.86-1.87,113.15-17.76,153.93-45.24,21.94-14.78,39-32.2,50.55-51.36C330.58,358.28,281.76,419.47,224.08,419.47Z"/><circle class="cls-4" cx="224.08" cy="126.55" r="72.67"/><path class="cls-1" d="M224.08,73.52a72.69,72.69,0,0,1,72,62.85,74,74,0,0,0,.66-9.82,72.67,72.67,0,1,0-145.33,0,74,74,0,0,0,.65,9.82A72.69,72.69,0,0,1,224.08,73.52Z"/><path class="cls-3" d="M224.08,205.46A78.91,78.91,0,1,1,303,126.55,79,79,0,0,1,224.08,205.46Zm0-145.33a66.42,66.42,0,1,0,66.42,66.42A66.49,66.49,0,0,0,224.08,60.13Z"/><path class="cls-3" d="M194.92,125.35a23.46,23.46,0,0,1-23.43-23.43H184a10.94,10.94,0,0,0,21.88,0h12.49A23.46,23.46,0,0,1,194.92,125.35Z"/><path class="cls-3" d="M253.24,125.35a23.46,23.46,0,0,1-23.43-23.43H242.3a10.94,10.94,0,0,0,21.88,0h12.49A23.46,23.46,0,0,1,253.24,125.35Z"/><path class="cls-3" d="M224.08,171.3a23.46,23.46,0,0,1-23.43-23.43h12.49a10.94,10.94,0,1,0,21.88,0h12.49A23.46,23.46,0,0,1,224.08,171.3Z"/></svg>