<svg id="Layer_1" data-name="Layer 1" xmlns="http://www.w3.org/2000/svg" viewBox="0 0 448.3 448.3"><defs><style>.cls-1{fill:#fff;}.cls-2{fill:#4ea3da;}.cls-3{fill:#122436;}.cls-4{fill:#ffcc34;}</style></defs><title>Artboard 177</title><circle class="cls-1" cx="224.15" cy="224.15" r="224.15"/><rect class="cls-2" x="102.55" y="47.86" width="243.2" height="290.78"/><rect class="cls-1" x="102.55" y="47.86" width="243.2" height="17.1"/><path class="cls-3" d="M350.3,343.19H98V43.31H350.3Zm-243.2-9.1H341.2V52.41H107.1Z"/><rect class="cls-4" x="185.13" y="291.6" width="78.04" height="142.72"/><path class="cls-3" d="M267.72,438.88H180.58V287.05h87.14Zm-78-9.11h68.94V296.16H189.68Z"/><rect class="cls-3" x="185.13" y="369.1" width="78.04" height="9.1"/><circle class="cls-1" cx="224.15" cy="402.79" r="11.76"/><rect class="cls-3" x="134.43" y="287.05" width="179.44" height="9.1"/><rect class="cls-4" x="138.98" y="82.07" width="170.34" height="137.55"/><path class="cls-1" d="M166.61,202.73H157.5v-8.79h9.11Zm0-19.35H157.5v-8.8h9.11Zm0-19.35H157.5v-8.8h9.11Zm0-19.35H157.5v-8.8h9.11Zm0-19.36H157.5v-8.79h9.11Zm0-19.35H157.5V97.18h9.11Z"/><path class="cls-1" d="M290.8,202.73h-9.11v-8.79h9.11Zm0-19.35h-9.11v-8.8h9.11Zm0-19.35h-9.11v-8.8h9.11Zm0-19.35h-9.11v-8.8h9.11Zm0-19.36h-9.11v-8.79h9.11Zm0-19.35h-9.11V97.18h9.11Z"/><rect class="cls-1" x="138.98" y="82.07" width="170.34" height="14.97"/><path class="cls-3" d="M313.87,224.17H134.43V77.52H313.87Zm-170.34-9.1H304.77V86.62H143.53Z"/><rect class="cls-1" x="138.98" y="246.7" width="46.15" height="19.6"/><path class="cls-3" d="M189.68,270.86H134.43V242.15h55.25Zm-46.15-9.11h37.05v-10.5H143.53Z"/><rect class="cls-1" x="263.17" y="245.81" width="46.15" height="19.6"/><path class="cls-3" d="M313.87,270H258.62v-28.7h55.25Zm-46.15-9.1h37v-10.5h-37Z"/><rect class="cls-3" x="219.6" y="235.48" width="9.1" height="40.09"/></svg>