<svg id="Layer_1" data-name="Layer 1" xmlns="http://www.w3.org/2000/svg" viewBox="0 0 448.3 448.3"><defs><style>.cls-1{fill:#fff;}.cls-2{fill:#ffcc34;}.cls-3{fill:#122436;}</style></defs><title>Artboard 181</title><circle class="cls-1" cx="224.15" cy="224.15" r="224.15"/><circle class="cls-1" cx="223.47" cy="219.95" r="209.32"/><path class="cls-1" d="M14.65,234.38C22,127.82,109.39,42.39,218.31,39.71c112.46-2.78,206.38,83.68,214,194.82q.66-9.76.43-19.74C429.87,99.23,333.87,7.85,218.31,10.7S11.37,109.55,14.21,225.11Q14.33,229.77,14.65,234.38Z"/><circle class="cls-2" cx="123.24" cy="170.1" r="62.69"/><path class="cls-1" d="M123.24,127.72a62.71,62.71,0,0,1,61.87,52.53,64,64,0,0,0,.81-10.15A62.69,62.69,0,1,0,61.37,180.25,62.7,62.7,0,0,1,123.24,127.72Z"/><path class="cls-2" d="M175.3,208.68a1.17,1.17,0,0,1,.4.13c8.69,4.19,20.49,6.07,27.52-2.16a23.61,23.61,0,0,0,3-4.76c4.46-9.52,4.07-20.15,4-30.4,0-7.67-.75-20,8.55-22.4,14.36-3.73,21.35,17.85,23.9,28.08,8.24,33-21.77,75.34-21.77,75.34s3.53-8.25,21.18-.59,26.49,34.14,26.49,34.14c-20.6-37.12,7.59-77.57,44.72-88,17.78-5,37.59-3.18,54.49,4.09a87.25,87.25,0,0,1,14.33,8.19c6.1,4.18,13.88,8.46,14,16.87a13.53,13.53,0,0,1-8.22,12.52c-3.09,1.33-6.49,1-9.71.34-5.14-1.07-10-3.12-15.11-4.43-8.47-2.19-17.7-2.24-25.73,1.22s-14.63,10.8-15.91,19.46c-1.14,7.67,1.79,15.27,4,22.71,9.25,31.55-.59,71.47-30.9,88.5-71,39.9-151-11.77-171.57-83.5a140.92,140.92,0,0,1-4.56-23.58q-.66-6-.85-12.1-.11-3-.11-6.09c0-2.2-.52-4.87,1-6.74s5.16-2.68,7.53-2.78c1,0,2.1-.12,3.15-.21q3-.28,5.93-.84a62.47,62.47,0,0,0,30.63-15.42q2.11-1.94,4-4a13.64,13.64,0,0,1,5-3.37A1.09,1.09,0,0,1,175.3,208.68Z"/><path class="cls-1" d="M234.1,249.79a22.8,22.8,0,0,0-11.59,1.44A8,8,0,0,0,219,254c-1.28,1.91-1.28,4.36-1.61,6.64-.28,1.89-.83,3.83-.3,5.67,1.39,4.81,6.18,3,9.62,2.76,5.3-.4,10.66,1.1,15.47,3.19A36.35,36.35,0,0,1,254.85,282a60.83,60.83,0,0,1,4.91,6.5,20,20,0,0,1,2,3.42c.33.85-.24,2.08,1.3,2.17a2.16,2.16,0,0,0,1.87-1.19c1.77-3.2.43-9.42-.27-12.8-1.51-7.42-5-12.89-9.88-18.48a36.33,36.33,0,0,0-12.66-9.74A28.77,28.77,0,0,0,234.1,249.79Z"/><path class="cls-1" d="M313.34,218.35c17.78-5,37.59-3.17,54.49,4.1a85.83,85.83,0,0,1,14.33,8.19c3.07,2.09,6.55,4.22,9.28,6.88a13.36,13.36,0,0,0,4.71-10.32c-.11-8.41-7.89-12.69-14-16.87a87.25,87.25,0,0,0-14.33-8.19c-16.9-7.27-36.71-9.09-54.49-4.09-31.83,8.95-57.09,40-50.67,72C267.4,246,288.34,225.38,313.34,218.35Z"/><path class="cls-1" d="M117.56,248.34q.14,4,.46,8.06a4.29,4.29,0,0,1,.39-.59c1.57-2,5.16-2.68,7.53-2.78q1.57-.06,3.15-.21A59.16,59.16,0,0,0,135,252a62.11,62.11,0,0,0,11.27-3.26,60.73,60.73,0,0,0,15.8-9.61c2.08-1.7,4.28-3.38,6.23-5.22,1.78-1.69,3.3-4,5.93-4.43a7.77,7.77,0,0,1,3.06.31c4.51,1.19,8.52,3.07,13.29,2.91,4-.13,10.62-1.73,12.62-5.73a23.33,23.33,0,0,0,3-4.76c4.46-9.52,4.07-20.15,4-30.4,0-7.67-.75-20,8.55-22.4,14.36-3.72,21.35,17.86,23.9,28.08.22.85.4,1.71.57,2.57a57.67,57.67,0,0,0-.57-22.88c-2.55-10.22-9.54-31.8-23.9-28.07-9.3,2.41-8.58,14.73-8.55,22.4,0,10.25.42,20.88-4,30.4a23.61,23.61,0,0,1-3,4.76c-7,8.23-18.83,6.35-27.52,2.16a1.17,1.17,0,0,0-.4-.13,1.09,1.09,0,0,0-.58.16,13.64,13.64,0,0,0-5,3.37q-1.92,2.11-4,4A62.47,62.47,0,0,1,135,231.68q-2.94.56-5.93.84-1.58.15-3.15.21c-2.37.1-6,.81-7.53,2.78s-1,4.54-1,6.74Q117.45,245.3,117.56,248.34Z"/><path class="cls-1" d="M323.06,271.08a21.93,21.93,0,0,0-1.59,5.53c-1.14,7.67,1.79,15.27,4,22.72a82.14,82.14,0,0,1,2.75,13.6A86,86,0,0,0,325.44,279C324.67,276.39,323.81,273.74,323.06,271.08Z"/><path class="cls-3" d="M218.11,2.77C98.36,5.72,3.33,105.55,6.28,225.31a217.25,217.25,0,0,0,217,211.89c1.83,0,3.66,0,5.5-.07C348.57,434.18,443.6,334.35,440.65,214.6S338-.22,218.11,2.77Zm10.32,418.5A201.38,201.38,0,0,1,22.14,224.92c-2.73-111,85.35-203.55,196.36-206.29,1.69,0,3.36-.06,5-.06a201.28,201.28,0,0,1,161.71,81.67l-.39.09c0,.08,1.49,8.75-5,18.65-8.75,13.25-27.88,23.09-55.34,28.46-35.34,6.91-58.17,27.14-72.67,47.64a61.73,61.73,0,0,0-1.39-19.84c-4.06-16.24-10.2-26.9-18.27-31.68a19.72,19.72,0,0,0-15.33-2.15c-14.71,3.82-14.56,20.59-14.49,28.66l0,3.54c.05,9.08.1,17.65-3.22,24.73a15.06,15.06,0,0,1-1.95,3.16c-3,3.49-7.91,3.3-11.92,2.34a70.61,70.61,0,1,0-75.82,35.52c0,.68,0,1.33,0,1.88,0,.35,0,.69,0,1q0,3.18.11,6.36c.14,4.31.44,8.58.89,12.69a149.59,149.59,0,0,0,4.83,24.91c12.05,42,43.8,78.09,82.86,94.14a116.52,116.52,0,0,0,44.41,9,113.37,113.37,0,0,0,55.81-14.87c35.27-19.82,44.16-65.1,34.63-97.65-.33-1.13-.68-2.26-1-3.39-1.76-5.74-3.42-11.16-2.72-15.93.83-5.51,5.22-10.75,11.21-13.33,5.75-2.49,13.07-2.78,20.61-.83,2,.52,4,1.17,6,1.82a88.44,88.44,0,0,0,9.5,2.7c3.64.75,9.11,1.48,14.47-.83a21.35,21.35,0,0,0,13-19.91c-.17-11.76-9.52-18-15.7-22.13l-1.76-1.18A92.72,92.72,0,0,0,371,194.86c-19-8.17-40.77-9.79-59.77-4.45-23.48,6.61-43.6,24-52.51,45.37a63.86,63.86,0,0,0-4.17,14.59,38.6,38.6,0,0,0-9.14-5.69c4.82-17.87,23.76-70.26,82.16-81.67,32.18-6.29,54.22-18.16,65.53-35.29a49.2,49.2,0,0,0,4.58-8.69,200,200,0,0,1,27.15,96C427.52,326,339.44,418.54,228.43,421.27Zm47.72-137.72a87.22,87.22,0,0,0-4.62-10.74,45.17,45.17,0,0,1,1.79-30.93c7.09-17,23.25-30.87,42.17-36.19,15.57-4.38,33.5-3,49.2,3.74a78,78,0,0,1,13,7.45l1.9,1.28c5.35,3.57,8.6,6,8.64,9.15a5.62,5.62,0,0,1-3.43,5.13c-1.38.59-4.07,0-5-.15A73.89,73.89,0,0,1,372,230c-2.22-.72-4.52-1.47-6.93-2.09-10.94-2.83-21.9-2.25-30.87,1.62-11.08,4.78-19,14.58-20.61,25.57-1.24,8.32,1.14,16.07,3.24,22.91.33,1.07.66,2.14,1,3.2,7.82,26.68.95,63.55-27.17,79.36-26.89,15.11-57.58,16.91-86.42,5.06-34.68-14.24-62.9-46.37-73.64-83.83a133.56,133.56,0,0,1-4.31-22.25c-.4-3.73-.67-7.6-.8-11.52-.07-1.94-.1-3.88-.1-5.82,0-.49,0-1,0-1.51a8.33,8.33,0,0,1,.91-.08l.32,0,1.61-.11c.54,0,1.09-.06,1.63-.11a1.6,1.6,0,0,1,.23,0c2-.19,3.92-.48,5.84-.83l.62-.08.38-.1q2.75-.54,5.4-1.29l1.17-.34q2.55-.76,5-1.71c.24-.09.49-.15.72-.25s.47-.22.71-.32c1.51-.61,3-1.28,4.43-2,.58-.28,1.14-.58,1.71-.87,1.33-.71,2.65-1.44,3.93-2.23.63-.38,1.25-.79,1.86-1.19,1.12-.74,2.23-1.49,3.3-2.29.69-.51,1.36-1,2-1.57.94-.76,1.86-1.53,2.77-2.33.35-.31.73-.58,1.07-.9s.72-.74,1.09-1.1c.81-.77,1.59-1.56,2.36-2.37.35-.37.74-.71,1.08-1.09l.09-.1c13.4,5.26,26.05,3.22,33.61-5.64a31.06,31.06,0,0,0,4.16-6.55c4.93-10.5,4.86-21.78,4.8-31.73l0-3.59c0-4.35-.11-12.45,2.62-13.16a3.86,3.86,0,0,1,3.24.43c3.13,1.85,7.65,8.58,11,21.89,6.54,26.16-15.24,60.84-19.76,67.64a12.81,12.81,0,0,0-1.62,2.65,7.94,7.94,0,0,0,13.77,7.71l.21-.3c1-.37,4.58-.53,11.35,2.41,7.72,3.34,13.91,12.21,17.87,19.71a63.9,63.9,0,0,0,4.84,11,7.93,7.93,0,0,0,14.46-6.36ZM162.39,208.3c-.29.3-.59.6-.89.89-.93.92-1.91,1.8-2.91,2.65l-1,.81c-1,.84-2.11,1.63-3.21,2.4l-1,.67c-1.11.74-2.26,1.43-3.43,2.09-.36.2-.71.41-1.07.6-1.15.62-2.33,1.17-3.52,1.7-.42.19-.83.39-1.26.57-1.14.47-2.32.88-3.5,1.28-.5.17-1,.36-1.51.52-1.18.36-2.38.64-3.59.92-.53.12-1,.28-1.58.38-1.19.24-2.4.39-3.61.55-.59.08-1.17.19-1.76.25-1.77.17-3.57.27-5.38.27a54.87,54.87,0,1,1,39.15-16.55Z"/></svg>