<svg id="Layer_1" data-name="Layer 1" xmlns="http://www.w3.org/2000/svg" viewBox="0 0 448.3 448.3"><defs><style>.cls-1{fill:#fff;}.cls-2{fill:#4ea3da;}.cls-3{fill:#122436;}.cls-4{fill:#ffcc34;}</style></defs><title>Artboard 178</title><circle class="cls-1" cx="224.15" cy="224.15" r="224.15"/><path class="cls-2" d="M303.1,65.86A103.69,103.69,0,0,0,223,106a103.87,103.87,0,0,0-183.5,68.56c1.34,73.76,189.24,248,189.24,248s181.46-181,180.13-254.73A103.88,103.88,0,0,0,303.1,65.86Z"/><path class="cls-1" d="M142,98A103.67,103.67,0,0,1,223.5,135.2,103.86,103.86,0,0,1,407.63,180a58.27,58.27,0,0,0,1.21-12.15A103.87,103.87,0,0,0,223,106,103.88,103.88,0,0,0,39.47,174.53a58.11,58.11,0,0,0,1.65,12.09A103.88,103.88,0,0,1,142,98Z"/><path class="cls-3" d="M228.84,430.16,225,426.58C217.25,419.4,35.37,249.85,34,174.63a109.34,109.34,0,0,1,188.82-77,109.34,109.34,0,0,1,191.49,70.16C415.67,243,240,419,232.57,426.44ZM141.55,74.26A98.51,98.51,0,0,0,44.94,174.43c1.17,64.9,156.94,215.22,183.63,240.51,25.75-26.24,176-182.12,174.8-247a98.4,98.4,0,0,0-176.08-58.61l-4.16,5.34-4.34-5.19A98,98,0,0,0,141.55,74.26Z"/><rect class="cls-4" x="202.65" y="153.46" width="44.54" height="119.55" rx="10.18" transform="translate(-3.82 4.11) rotate(-1.04)"/><rect class="cls-4" x="204.63" y="300.56" width="44.54" height="44.54" rx="10.18" transform="translate(-5.81 4.16) rotate(-1.04)"/><circle class="cls-4" cx="330.64" cy="264.94" r="88.37"/><path class="cls-1" d="M330.64,194.57a88.36,88.36,0,0,1,87.91,79.37,88.36,88.36,0,1,0-175.82,0A88.38,88.38,0,0,1,330.64,194.57Z"/><path class="cls-3" d="M330.64,358.77a93.83,93.83,0,1,1,93.83-93.83A93.93,93.93,0,0,1,330.64,358.77Zm0-176.73a82.9,82.9,0,1,0,82.9,82.9A83,83,0,0,0,330.64,182Z"/><rect class="cls-1" x="322.48" y="239.78" width="55.71" height="10.93" transform="translate(-70.8 319.56) rotate(-45)"/><circle class="cls-1" cx="330.64" cy="262.82" r="14.85"/><rect class="cls-1" x="325.17" y="192.51" width="10.93" height="18.94"/><rect class="cls-1" x="325.17" y="318.43" width="10.93" height="18.93"/><rect class="cls-1" x="384.13" y="259.47" width="18.93" height="10.93"/><rect class="cls-1" x="258.22" y="259.47" width="18.93" height="10.93"/></svg>